<svg width="40" height="40" viewBox="0 0 40 40" fill="none" xmlns="http://www.w3.org/2000/svg">
<path fill-rule="evenodd" clip-rule="evenodd" d="M7.46956 32.3592L32.4551 33.5312L32.455 7.92586C32.455 7.92586 31.813 7.28391 30.5291 6.64195L19.1892 6.93755L29.5662 6.32098C28.9242 6 28.2823 6 27.6403 6L7.00072 6.64642L7.46956 32.3592Z" fill="#BBE4FC"/>
<path d="M10.75 7.87549H32.2884C32.5613 7.87549 32.7825 8.09671 32.7825 8.3696V33.5062C32.7825 33.7791 32.5613 34.0003 32.2884 34.0003H10.75V7.87549Z" fill="#0D80D8"/>
<path d="M7 6.70312L10.7502 7.87507V33.9997L7 32.5934V6.70312Z" fill="#00A4FA"/>
<rect x="20.0723" y="15.4707" width="3.34558" height="3.34558" rx="0.334558" fill="#134C7B"/>
<rect x="21.9121" y="19.1509" width="3.34558" height="3.34558" rx="0.334558" fill="#134C7B"/>
<rect x="23.752" y="22.8306" width="3.34558" height="3.34558" rx="0.334558" fill="#134C7B"/>
<rect x="18.2324" y="19.1509" width="3.34558" height="3.34558" rx="0.334558" fill="#134C7B"/>
<rect x="20.0723" y="22.8306" width="3.34558" height="3.34558" rx="0.334558" fill="#134C7B"/>
<rect x="16.3926" y="22.8306" width="3.34558" height="3.34558" rx="0.334558" fill="#134C7B"/>
</svg>
