<svg width="48" height="49" viewBox="0 0 48 49" fill="none" xmlns="http://www.w3.org/2000/svg">
    <path d="M27.2075 23.2057C26.8672 23.206 26.5409 23.3416 26.3005 23.5824C26.0601 23.8233 25.9252 24.1497 25.9254 24.4901V25.1656C25.5634 25.2393 25.2379 25.4357 25.0039 25.7216C24.7699 26.0075 24.6417 26.3654 24.641 26.7348C24.6413 27.1269 24.7852 27.5054 25.0454 27.7986C24.7388 27.9126 24.4743 28.1177 24.2874 28.3863C24.1006 28.6548 24.0003 28.9741 24 29.3013C24.0007 29.5504 24.0594 29.796 24.1715 30.0185C24.2835 30.2411 24.4459 30.4344 24.6456 30.5833C24.4456 30.7325 24.283 30.9262 24.1709 31.1492C24.0589 31.3721 24.0003 31.6182 24 31.8677C23.9998 32.0785 24.0411 32.2872 24.1216 32.482C24.2021 32.6768 24.3202 32.8538 24.4692 33.003C24.6181 33.1521 24.7949 33.2705 24.9896 33.3512C25.1843 33.432 25.393 33.4736 25.6037 33.4738H31.7016C31.7016 33.4738 31.0606 35.5685 31.0606 36.0402C31.0606 37.4848 31.0591 39.25 32.9837 39.25H33.6247L33.9464 37.0098L35.4651 34.1837C35.9122 33.352 36.7802 32.8327 37.726 32.8327H38.1166V24.4901H36.8322C36.0099 23.6678 34.8961 23.2057 33.735 23.2057H27.2098H27.2075Z" fill="#EB5848"/>
    <path d="M14.5889 9.25L14.1731 12.2116L12.227 15.8626L9.88342 16.3083V24.4901H11.1678C11.9901 25.3124 13.1039 25.7745 14.265 25.7745L21.6472 25.7193C21.9592 25.7193 22.2585 25.5954 22.4791 25.3748C22.6997 25.1542 22.8236 24.855 22.8236 24.543C22.8237 24.3601 22.7812 24.1798 22.6994 24.0163C22.6177 23.8528 22.4989 23.7106 22.3526 23.6009C22.658 23.512 22.9263 23.3264 23.1173 23.072C23.3082 22.8177 23.4116 22.5083 23.4118 22.1902C23.4116 21.8884 23.3185 21.594 23.1453 21.347C23.4057 21.1903 23.6212 20.969 23.7709 20.7045C23.9207 20.44 23.9996 20.1414 24 19.8374C23.9999 19.5461 23.9276 19.2594 23.7897 19.0028C23.6518 18.7462 23.4525 18.5278 23.2096 18.367C23.4525 18.2061 23.6518 17.9877 23.7897 17.7311C23.9276 17.4745 23.9999 17.1878 24 16.8965C24 16.4285 23.8141 15.9797 23.4832 15.6487C23.1522 15.3178 22.7034 15.1319 22.2354 15.1319H16.3007C16.3007 15.1319 16.9417 13.4117 16.9417 12.94C16.9417 11.4966 16.9409 9.25 15.0163 9.25H14.5889Z" fill="#46BA0F"/>
</svg>
