<svg width="38" height="46" viewBox="0 0 38 46" fill="none" xmlns="http://www.w3.org/2000/svg">
    <path d="M37 36.2C37 41.12 32.92 45.2 28 45.2H19.12C17.44 45.2 15.88 44.48 14.68 43.28L1.96 30.68C1.36 30.08 1 29.12 1 28.28C1 27.44 1.36 26.48 1.96 25.88C2.56 25.28 3.52 24.92 4.36 24.92C5.2 24.92 6.16 25.28 6.76 25.88L12.88 32V7.40005C12.88 5.72005 14.2 4.40005 15.88 4.40005C16.6 4.40005 17.32 4.64005 17.92 5.12005L18.88 6.08005V3.80005C18.88 2.12005 20.2 0.800049 21.88 0.800049C23.56 0.800049 24.88 2.12005 24.88 3.80005V6.08005L25.84 5.12005C26.44 4.64005 27.16 4.40005 27.88 4.40005C29.56 4.40005 30.88 5.72005 30.88 7.40005V9.68005L31.84 8.72005C32.44 8.24005 33.16 8.00005 33.88 8.00005C35.56 8.00005 36.88 9.32005 36.88 11V36.2H37Z" fill="#FFEEA3"/>
    <path d="M1.60002 28.16C1.60002 27.44 1.84002 26.72 2.44002 26.12C3.52002 25.04 5.32002 25.04 6.40002 26.12L11.56 31.28L13.6 33.32V30.44V26.6V20.6V7.39995C13.6 6.07995 14.68 4.99995 16 4.99995C16.72 4.99995 17.32 5.35995 17.56 5.59995L19.6 7.39995V4.75995V3.79995C19.6 2.47995 20.68 1.39995 22 1.39995C23.32 1.39995 24.4 2.47995 24.4 3.79995V4.75995V7.39995L26.44 5.59995C26.68 5.35995 27.28 4.99995 28 4.99995C29.32 4.99995 30.4 6.07995 30.4 7.39995V8.35995V11L32.44 9.19995C32.68 8.95995 33.28 8.59995 34 8.59995C35.32 8.59995 36.4 9.67995 36.4 11V20.6V26.6V36.2C36.4 40.88 32.68 44.6 28 44.6H19.12C17.56 44.6 16.24 44 15.16 42.92L2.44002 30.2C1.84002 29.72 1.60002 29 1.60002 28.16ZM0.400024 28.16C0.400024 29.24 0.760024 30.2 1.60002 31.04L14.32 43.76C15.52 45.08 17.2 45.8 19.12 45.8H28C33.28 45.8 37.6 41.48 37.6 36.2V26.6V20.6V11C37.6 8.95995 36.04 7.39995 34 7.39995C33.04 7.39995 32.2 7.75995 31.6 8.35995V7.39995C31.6 5.35995 30.04 3.79995 28 3.79995C27.04 3.79995 26.2 4.15995 25.6 4.75995V3.79995C25.6 1.75995 24.04 0.199951 22 0.199951C19.96 0.199951 18.4 1.75995 18.4 3.79995V4.75995C17.8 4.15995 16.96 3.79995 16 3.79995C13.96 3.79995 12.4 5.35995 12.4 7.39995V20.6V26.6V30.56L7.24002 25.4C5.68002 23.84 3.16002 23.84 1.60002 25.4C0.760024 26.12 0.400024 27.2 0.400024 28.16Z" fill="#BA9B48"/>
    <path d="M19.6 6.19995H18.4V21.8H19.6V6.19995Z" fill="#BA9B48"/>
    <path d="M25.6 6.19995H24.4V21.8H25.6V6.19995Z" fill="#BA9B48"/>
    <path d="M31.6 9.80005H30.4V21.8H31.6V9.80005Z" fill="#BA9B48"/>
</svg>
