<svg width="64" height="64" viewBox="0 0 64 64" fill="none" xmlns="http://www.w3.org/2000/svg">
    <path d="M47 45.2C47 50.12 42.92 54.2 38 54.2H29.12C27.44 54.2 25.88 53.48 24.68 52.28L11.96 39.68C11.36 39.08 11 38.12 11 37.28C11 36.44 11.36 35.48 11.96 34.88C12.56 34.28 13.52 33.92 14.36 33.92C15.2 33.92 16.16 34.28 16.76 34.88L22.88 41V16.4C22.88 14.72 24.2 13.4 25.88 13.4C26.6 13.4 27.32 13.64 27.92 14.12L28.88 15.08V12.8C28.88 11.12 30.2 9.80005 31.88 9.80005C33.56 9.80005 34.88 11.12 34.88 12.8V15.08L35.84 14.12C36.44 13.64 37.16 13.4 37.88 13.4C39.56 13.4 40.88 14.72 40.88 16.4V18.68L41.84 17.72C42.44 17.24 43.16 17 43.88 17C45.56 17 46.88 18.32 46.88 20V45.2H47Z" fill="#FFEEA3"/>
    <path d="M11.6 37.16C11.6 36.44 11.84 35.72 12.44 35.12C13.52 34.04 15.32 34.04 16.4 35.12L21.56 40.28L23.6 42.32V39.44V35.6V29.6V16.4C23.6 15.08 24.68 14 26 14C26.72 14 27.32 14.36 27.56 14.6L29.6 16.4V13.76V12.8C29.6 11.48 30.68 10.4 32 10.4C33.32 10.4 34.4 11.48 34.4 12.8V13.76V16.4L36.44 14.6C36.68 14.36 37.28 14 38 14C39.32 14 40.4 15.08 40.4 16.4V17.36V20L42.44 18.2C42.68 17.96 43.28 17.6 44 17.6C45.32 17.6 46.4 18.68 46.4 20V29.6V35.6V45.2C46.4 49.88 42.68 53.6 38 53.6H29.12C27.56 53.6 26.24 53 25.16 51.92L12.44 39.2C11.84 38.72 11.6 38 11.6 37.16ZM10.4 37.16C10.4 38.24 10.76 39.2 11.6 40.04L24.32 52.76C25.52 54.08 27.2 54.8 29.12 54.8H38C43.28 54.8 47.6 50.48 47.6 45.2V35.6V29.6V20C47.6 17.96 46.04 16.4 44 16.4C43.04 16.4 42.2 16.76 41.6 17.36V16.4C41.6 14.36 40.04 12.8 38 12.8C37.04 12.8 36.2 13.16 35.6 13.76V12.8C35.6 10.76 34.04 9.19995 32 9.19995C29.96 9.19995 28.4 10.76 28.4 12.8V13.76C27.8 13.16 26.96 12.8 26 12.8C23.96 12.8 22.4 14.36 22.4 16.4V29.6V35.6V39.56L17.24 34.4C15.68 32.84 13.16 32.84 11.6 34.4C10.76 35.12 10.4 36.2 10.4 37.16Z" fill="#BA9B48"/>
    <path d="M29.6 15.2H28.4V30.8H29.6V15.2Z" fill="#BA9B48"/>
    <path d="M35.6 15.2H34.4V30.8H35.6V15.2Z" fill="#BA9B48"/>
    <path d="M41.6 18.8H40.4V30.8H41.6V18.8Z" fill="#BA9B48"/>
</svg>
