<svg width="48" height="48" viewBox="0 0 48 48" fill="none" xmlns="http://www.w3.org/2000/svg">
    <path fill-rule="evenodd" clip-rule="evenodd" d="M30.3373 22.9858H26.465V19.4823H30.3373V22.9858ZM25.7274 22.9858H21.8551V19.4823H25.7274V22.9858ZM21.2097 22.9858H17.3373V19.4823H21.2097V22.9858ZM16.5997 22.9858H12.8196V19.4823H16.5997V22.9858ZM12.082 22.9858H8.20966V19.4823H12.082V22.9858ZM16.5997 18.7447H12.8196V15.2411H16.5997V18.7447ZM21.2097 18.7447H17.3373V15.2411H21.2097V18.7447ZM25.7274 18.7447H21.8551V15.2411H25.7274V18.7447ZM25.7274 14.5035H21.8551V11H25.7274V14.5035ZM37.621 20.4043C41.0324 19.8511 42.6919 21.4184 42.6919 21.4184C42.6919 21.4184 41.6778 25.383 36.8834 25.0142C34.0375 31.8445 28.3947 35.9497 20.8406 36.8239V33.8482H22.8393L19.3417 30.3499L15.8441 33.8482H17.8427V36.9997C17.7972 36.9999 17.7517 37 17.7061 37C4.98271 37 4.98271 25.383 5.44371 23.6312H30.7983C32.1813 23.6312 33.1033 23.2624 33.6565 22.9858C31.7203 19.3901 34.3941 16.1631 34.3941 16.1631C34.3941 16.1631 37.2522 17.7305 37.621 20.4043Z" fill="#2CB1CE"/>
</svg>
