<svg width="38" height="26" viewBox="0 0 38 26" fill="none" xmlns="http://www.w3.org/2000/svg">
    <path fill-rule="evenodd" clip-rule="evenodd" d="M25.3373 11.9858H21.465V8.48227H25.3373V11.9858ZM20.7274 11.9858H16.8551V8.48227H20.7274V11.9858ZM16.2097 11.9858H12.3373V8.48227H16.2097V11.9858ZM11.5997 11.9858H7.81959V8.48227H11.5997V11.9858ZM7.082 11.9858H3.20966V8.48227H7.082V11.9858ZM11.5997 7.74468H7.81959V4.24113H11.5997V7.74468ZM16.2097 7.74468H12.3373V4.24113H16.2097V7.74468ZM20.7274 7.74468H16.8551V4.24113H20.7274V7.74468ZM20.7274 3.50355H16.8551V0H20.7274V3.50355ZM32.621 9.40425C36.0324 8.85106 37.6919 10.4184 37.6919 10.4184C37.6919 10.4184 36.6778 14.383 31.8834 14.0142C29.0375 20.8445 23.3947 24.9497 15.8406 25.8239V22.8482H17.8393L14.3417 19.3499L10.8441 22.8482H12.8427V25.9997C12.7972 25.9999 12.7517 26 12.7061 26C-0.0172874 26 -0.0172877 14.383 0.443705 12.6312H25.7983C27.1813 12.6312 28.1033 12.2624 28.6565 11.9858C26.7203 8.39007 29.3941 5.16312 29.3941 5.16312C29.3941 5.16312 32.2522 6.7305 32.621 9.40425Z" fill="#2CB1CE"/>
</svg>
