<svg width="48" height="48" viewBox="0 0 48 48" fill="none" xmlns="http://www.w3.org/2000/svg">
    <path fill-rule="evenodd" clip-rule="evenodd" d="M40.2423 30.527C41.0535 28.5101 41.5 26.3072 41.5 24C41.5 14.335 33.665 6.5 24 6.5C14.335 6.5 6.5 14.335 6.5 24C6.5 33.665 14.335 41.5 24 41.5C26.3072 41.5 28.5101 41.0535 30.527 40.2423C29.3525 39.0093 28.6315 37.3405 28.6315 35.5032C28.6315 31.7081 31.7081 28.6315 35.5032 28.6315C37.3405 28.6315 39.0093 29.3525 40.2423 30.527Z" fill="#03A9F4"/>
    <path d="M33.692 39H37.3145V35.3769H39.7294L35.5032 31.1499L31.2771 35.3769H33.692V39Z" fill="#03A9F4"/>
    <path d="M26.1686 23.4037H28.4457V21.3435H26.1686V23.4037ZM23.4578 23.4037H25.7349V21.3435H23.4578V23.4037ZM20.8013 23.4037H23.0783V21.3435H20.8013V23.4037ZM18.1447 23.4037H20.3675V21.3435H18.1447V23.4037ZM15.4339 23.4037H17.7109V21.3435H15.4339V23.4037ZM18.1447 20.9097H20.3675V18.8495H18.1447V20.9097ZM20.8013 20.9097H23.0783V18.8495H20.8013V20.9097ZM23.4578 20.9097H25.7349V18.8495H23.4578V20.9097ZM23.4578 18.4158H25.7349V16.3556H23.4578V18.4158ZM35.7107 22.482C35.7107 22.482 34.7348 21.5603 32.7288 21.8856C32.5119 20.3134 30.8312 19.3917 30.8312 19.3917C30.8312 19.3917 29.259 21.2893 30.3975 23.4037C30.0722 23.5663 29.53 23.7832 28.7168 23.7832H13.8074C13.5363 24.8133 13.5363 31.6445 21.0181 31.6445C26.3855 31.6445 30.3975 29.1506 32.2951 24.5964C35.1143 24.8133 35.7107 22.482 35.7107 22.482Z" fill="white"/>
</svg>
