<svg width="36" height="34" viewBox="0 0 36 34" fill="none" xmlns="http://www.w3.org/2000/svg">
    <path d="M11.8124 33.2327C11.0107 33.2327 10.2537 32.8765 9.74153 32.2307L1.94823 22.5446C1.43604 21.8988 1.2357 21.075 1.43604 20.2732L4.21942 8.18227C4.39751 7.38062 4.93194 6.73483 5.66685 6.37864L16.9339 0.989858C17.2903 0.811895 17.6911 0.722778 18.0919 0.722778C18.4927 0.722778 18.8934 0.81176 19.2498 0.989993L30.517 6.35639C31.2517 6.71259 31.7862 7.35838 31.9643 8.16002L34.7476 20.251C34.9259 21.0526 34.7476 21.8765 34.2356 22.5223L26.442 32.2085C25.9298 32.8319 25.1728 33.2105 24.3712 33.2105L11.8126 33.2327H11.8124Z" fill="#326DE6"/>
    <path d="M18.0333 1.2794C18.3452 1.2794 18.6569 1.34614 18.9463 1.47974L30.2136 6.84614C30.7925 7.1356 31.2378 7.67003 31.3714 8.29357L34.1548 20.3846C34.3106 21.0303 34.1548 21.6984 33.7317 22.2104L25.9383 31.8967C25.5375 32.4088 24.9139 32.6983 24.2683 32.6983H11.7763C11.1305 32.6983 10.5071 32.4088 10.1063 31.8967L2.31286 22.2104C1.91204 21.6984 1.75605 21.0303 1.88979 20.3846L4.67316 8.29357C4.82901 7.64778 5.25208 7.11335 5.831 6.84614L17.0984 1.45763C17.3878 1.34627 17.7218 1.27953 18.0335 1.27953L18.0333 1.2794ZM18.0333 0.232788C17.5658 0.232788 17.0982 0.34415 16.6528 0.544493L5.38569 5.93327C4.49493 6.35634 3.87152 7.1356 3.6488 8.0931L0.865425 20.1842C0.642836 21.1417 0.865425 22.1214 1.48897 22.9008L9.28241 32.587C9.88371 33.344 10.7966 33.7671 11.7541 33.7671H24.2459C25.2034 33.7671 26.1164 33.344 26.7175 32.587L34.5111 22.9007C35.1345 22.1437 35.3572 21.1417 35.1345 20.1841L32.3511 8.0931C32.1286 7.1356 31.505 6.35634 30.6144 5.93327L19.3917 0.544358C18.9686 0.34415 18.501 0.232788 18.0333 0.232788Z" fill="white"/>
    <path d="M29.0645 19.4269C29.0423 19.4269 29.0423 19.4269 29.0645 19.4269H29.0423C29.02 19.4269 28.9978 19.4269 28.9978 19.4047C28.9533 19.4047 28.9088 19.3824 28.8642 19.3824C28.7083 19.3602 28.5747 19.3379 28.4411 19.3379C28.3742 19.3379 28.3075 19.3379 28.2184 19.3156H28.1961C27.7286 19.2711 27.35 19.2266 26.9937 19.1152C26.8378 19.0483 26.7933 18.9594 26.7487 18.8703C26.7487 18.848 26.7265 18.848 26.7265 18.8258L26.437 18.7368C26.5738 17.6893 26.521 16.6257 26.2812 15.5969C26.038 14.5596 25.6161 13.5725 25.0342 12.68L25.2569 12.4796V12.4351C25.2569 12.3238 25.2792 12.2124 25.3681 12.101C25.6354 11.8561 25.9694 11.6557 26.3703 11.4108C26.437 11.3663 26.5037 11.344 26.5706 11.2994C26.7042 11.2327 26.8156 11.1659 26.9492 11.0768C26.9714 11.0546 27.0159 11.0323 27.0606 10.9878C27.0828 10.9655 27.105 10.9655 27.105 10.9432C27.4167 10.676 27.4836 10.2307 27.2609 9.94108C27.1495 9.78523 26.9492 9.69625 26.7487 9.69625C26.5707 9.69625 26.4148 9.76299 26.2589 9.87435L26.2144 9.91884C26.1699 9.94108 26.1475 9.98571 26.1031 10.008C25.9917 10.1193 25.9026 10.2083 25.8136 10.3197C25.7691 10.3642 25.7246 10.431 25.6577 10.4755C25.3459 10.8096 25.0564 11.0768 24.767 11.2772C24.7002 11.3216 24.6335 11.344 24.5666 11.344C24.5222 11.344 24.4775 11.344 24.433 11.3216H24.3885L24.1212 11.4999C23.8317 11.1882 23.52 10.921 23.2083 10.6537C21.8661 9.60459 20.2508 8.96307 18.5545 8.80549L18.5322 8.51603L18.4877 8.47154C18.4208 8.40467 18.3319 8.33793 18.3095 8.18208C18.2872 7.82575 18.3319 7.42493 18.3764 6.97962V6.95737C18.3764 6.8905 18.3986 6.80152 18.4208 6.73465C18.4431 6.60117 18.4653 6.46743 18.4877 6.31158V6.11124C18.4877 5.71042 18.1759 5.37646 17.7974 5.37646C17.6192 5.37646 17.4411 5.46545 17.3075 5.59905C17.174 5.73266 17.1072 5.91076 17.1072 6.11124V6.28934C17.1072 6.44519 17.1294 6.57879 17.1739 6.7124C17.1961 6.77927 17.1961 6.84601 17.2184 6.93513V6.95737C17.2629 7.40268 17.3297 7.8035 17.2853 8.15984C17.263 8.31569 17.1739 8.38242 17.1072 8.4493L17.0627 8.49379L17.0403 8.78325C16.6395 8.82774 16.2386 8.87223 15.8378 8.96134C14.1233 9.33992 12.6091 10.2084 11.429 11.4553L11.2063 11.2994H11.1618C11.1173 11.2994 11.0727 11.3216 11.0282 11.3216C10.9614 11.3216 10.8946 11.2994 10.8277 11.2549C10.5383 11.0546 10.2488 10.765 9.93713 10.431C9.89263 10.3865 9.84814 10.3197 9.78127 10.2752C9.69216 10.1638 9.60304 10.0747 9.49168 9.96347C9.46943 9.94108 9.42494 9.91897 9.38045 9.87435C9.35821 9.8521 9.33596 9.8521 9.33596 9.82986C9.198 9.71588 9.02497 9.65294 8.84602 9.65162C8.64554 9.65162 8.4452 9.74074 8.33384 9.89659C8.11112 10.1861 8.17799 10.6314 8.48969 10.8986C8.51194 10.8986 8.51194 10.921 8.53418 10.921C8.57867 10.9432 8.60105 10.9877 8.64554 11.0099C8.77915 11.0989 8.89051 11.1658 9.02412 11.2327C9.09099 11.2549 9.15773 11.2994 9.2246 11.344C9.62528 11.5889 9.95937 11.7893 10.2266 12.0343C10.3379 12.1455 10.3379 12.2569 10.3379 12.3683V12.4128L10.5605 12.6132C10.516 12.68 10.4716 12.7246 10.4492 12.7913C9.33582 14.5505 8.91276 16.6213 9.20222 18.6699L8.91276 18.7589C8.91276 18.7813 8.89051 18.7813 8.89051 18.8034C8.84602 18.8925 8.77915 18.9816 8.64554 19.0483C8.31159 19.1597 7.91077 19.2043 7.44321 19.2488H7.42083C7.3541 19.2488 7.26498 19.2488 7.19825 19.2711C7.06464 19.2711 6.93103 19.2933 6.77518 19.3156C6.73069 19.3156 6.6862 19.3379 6.64157 19.3379C6.61933 19.3379 6.59708 19.3379 6.5747 19.3602C6.17388 19.4492 5.92891 19.8277 5.99578 20.1839C6.06265 20.4958 6.35211 20.6963 6.70831 20.6963C6.77518 20.6963 6.81967 20.6963 6.88654 20.6739C6.90879 20.6739 6.93103 20.6739 6.93103 20.6516C6.97552 20.6516 7.02001 20.6294 7.0645 20.6294C7.22049 20.5849 7.33185 20.5404 7.46546 20.4735C7.5322 20.4513 7.59893 20.4067 7.6658 20.3846H7.68805C8.11112 20.2286 8.48969 20.095 8.84602 20.0505H8.89051C9.02412 20.0505 9.11324 20.1172 9.17997 20.1618C9.20222 20.1618 9.20222 20.1841 9.22446 20.1841L9.5363 20.1396C10.0707 21.7872 11.095 23.2569 12.4533 24.3258C12.765 24.5706 13.0767 24.7711 13.4108 24.9716L13.2772 25.2609C13.2772 25.2833 13.2994 25.2833 13.2994 25.3054C13.3439 25.3945 13.3884 25.5059 13.3439 25.6617C13.2104 25.9958 13.01 26.3297 12.765 26.7083V26.7306C12.7205 26.7974 12.676 26.8419 12.6315 26.9087C12.5424 27.02 12.4755 27.1314 12.3864 27.265C12.3642 27.2872 12.3419 27.3317 12.3197 27.3764C12.3197 27.3986 12.2974 27.4208 12.2974 27.4208C12.1193 27.7994 12.2529 28.2225 12.5869 28.3783C12.6759 28.4228 12.765 28.4452 12.8541 28.4452C13.1213 28.4452 13.3885 28.267 13.5221 28.022C13.5221 27.9998 13.5444 27.9775 13.5444 27.9775C13.5666 27.933 13.5889 27.8885 13.6111 27.8662C13.678 27.7103 13.7002 27.5989 13.7447 27.4653L13.8116 27.265C13.9675 26.8197 14.0788 26.4633 14.2792 26.1516C14.3681 26.018 14.4796 25.9958 14.5686 25.9512C14.5909 25.9512 14.5909 25.9512 14.6131 25.9289L14.7691 25.6395C15.7488 26.018 16.8177 26.2184 17.8864 26.2184C18.5322 26.2184 19.2002 26.1516 19.8238 25.9958C20.2162 25.9081 20.6028 25.7965 20.9816 25.6617L21.1151 25.9067C21.1375 25.9067 21.1375 25.9067 21.1597 25.9289C21.2711 25.9512 21.3601 25.9958 21.4492 26.1294C21.6273 26.4411 21.7609 26.8197 21.9167 27.2427V27.265L21.9836 27.4653C22.0281 27.5989 22.0504 27.7325 22.1171 27.8662C22.1395 27.9106 22.1617 27.933 22.184 27.9775C22.184 27.9998 22.2063 28.022 22.2063 28.022C22.3398 28.2892 22.607 28.4452 22.8742 28.4452C22.9634 28.4452 23.0525 28.4228 23.1415 28.3783C23.2973 28.2894 23.4309 28.1556 23.4755 27.9775C23.52 27.7994 23.52 27.5989 23.431 27.4208C23.431 27.3986 23.4087 27.3986 23.4087 27.3764C23.3864 27.3319 23.3642 27.2874 23.3419 27.265C23.2751 27.1314 23.1861 27.02 23.097 26.9087C23.0525 26.8419 23.008 26.7974 22.9635 26.7307V26.7083C22.7184 26.3297 22.4957 25.9958 22.3844 25.6617C22.3399 25.5059 22.3844 25.4169 22.4067 25.3055C22.4067 25.2833 22.4289 25.2833 22.4289 25.261L22.3176 24.9938C23.4978 24.3035 24.4998 23.3236 25.2569 22.1213C25.6577 21.4978 25.9694 20.8075 26.192 20.1172L26.4593 20.1617C26.4816 20.1617 26.4816 20.1395 26.5037 20.1395C26.5929 20.095 26.6597 20.0282 26.7933 20.0282H26.8378C27.1942 20.0727 27.5726 20.2062 27.9958 20.3622H28.018C28.0848 20.3844 28.1515 20.4289 28.2184 20.4512C28.352 20.518 28.4634 20.5625 28.6192 20.6071C28.6637 20.6071 28.7082 20.6294 28.7528 20.6294C28.7751 20.6294 28.7973 20.6294 28.8196 20.6516C28.8864 20.6739 28.9309 20.6739 28.9978 20.6739C29.3317 20.6739 29.6212 20.4513 29.7103 20.1618C29.7103 19.8946 29.4653 19.5383 29.0645 19.4271V19.4269ZM18.7548 18.3358L17.7751 18.8035L16.7953 18.3358L16.5505 17.2893L17.2184 16.4432H18.3095L18.9775 17.2893L18.7549 18.3358H18.7548ZM24.5666 16.0201C24.7394 16.7565 24.792 17.5158 24.7225 18.269L21.3156 17.2893C21.0039 17.2004 20.8258 16.8885 20.8925 16.5768C20.9148 16.4877 20.9594 16.3986 21.0261 16.3318L23.7205 13.9047C24.0989 14.5282 24.3884 15.2407 24.5666 16.02V16.0201ZM22.6516 12.5687L19.7347 14.6396C19.4897 14.7954 19.1556 14.7508 18.9553 14.506C18.8885 14.4391 18.8663 14.35 18.8439 14.261L18.6436 10.6314C20.16 10.806 21.5728 11.4888 22.6516 12.5687ZM16.1941 10.7426C16.4391 10.6981 16.6617 10.6536 16.9067 10.6091L16.7063 14.1718C16.6841 14.4835 16.4391 14.7507 16.105 14.7507C16.0161 14.7507 15.9047 14.7284 15.8378 14.6839L12.8763 12.5687C13.7894 11.6557 14.9249 11.0322 16.1941 10.7427V10.7426ZM11.8075 13.9045L14.4573 16.2648C14.7022 16.4653 14.7245 16.8438 14.5241 17.0887C14.4573 17.1777 14.3683 17.2446 14.2569 17.267L10.8055 18.269C10.6719 16.7548 11.0058 15.2184 11.8075 13.9045ZM11.2062 19.939L14.7468 19.3377C15.0363 19.3154 15.3035 19.5159 15.3703 19.8054C15.3925 19.9388 15.3925 20.0503 15.348 20.1617L13.9897 23.4349C12.7427 22.6332 11.7408 21.4085 11.2063 19.939H11.2062ZM19.3339 24.3701C18.8217 24.4815 18.3095 24.5482 17.7751 24.5482C16.9958 24.5482 16.2386 24.4147 15.5262 24.192L17.2853 21.0078C17.4633 20.8074 17.7528 20.7184 17.9978 20.852C18.1017 20.9157 18.1925 20.9988 18.265 21.0968L19.9795 24.192C19.7792 24.2588 19.5564 24.3034 19.3337 24.3701H19.3339ZM23.6759 21.275C23.1192 22.1657 22.3843 22.8782 21.5383 23.4349L20.1355 20.0724C20.0686 19.8054 20.18 19.5159 20.4472 19.3822C20.5362 19.3377 20.6475 19.3154 20.7589 19.3154L24.3217 19.9167C24.1881 20.4065 23.9653 20.852 23.6759 21.275Z" fill="white"/>
</svg>
