<svg width="36" height="35" viewBox="0 0 36 35" fill="none" xmlns="http://www.w3.org/2000/svg">
    <circle cx="18" cy="17.5" r="17.5" fill="#066DA5"/>
    <path d="M20.9495 16.9037H23.2266V14.8435H20.9495V16.9037ZM18.2387 16.9037H20.5158V14.8435H18.2387V16.9037ZM15.5821 16.9037H17.8592V14.8435H15.5821V16.9037ZM12.9255 16.9037H15.1484V14.8435H12.9255V16.9037ZM10.2147 16.9037H12.4918V14.8435H10.2147V16.9037ZM12.9255 14.4097H15.1484V12.3495H12.9255V14.4097ZM15.5821 14.4097H17.8592V12.3495H15.5821V14.4097ZM18.2387 14.4097H20.5158V12.3495H18.2387V14.4097ZM18.2387 11.9158H20.5158V9.85559H18.2387V11.9158ZM30.4915 15.982C30.4915 15.982 29.5156 15.0603 27.5096 15.3856C27.2928 13.8134 25.6121 12.8917 25.6121 12.8917C25.6121 12.8917 24.0398 14.7893 25.1784 16.9037C24.8531 17.0663 24.3109 17.2832 23.4977 17.2832H8.58824C8.31716 18.3133 8.31716 25.1445 15.799 25.1445C21.1664 25.1445 25.1784 22.6506 27.0759 18.0964C29.8951 18.3133 30.4915 15.982 30.4915 15.982Z" fill="white"/>
</svg>
