<svg width="32" height="31" viewBox="0 0 32 31" fill="none" xmlns="http://www.w3.org/2000/svg">
    <path d="M31.5577 25.9038C31.1779 25.9038 30.8894 28.4712 27.9135 28.4712C26.976 28.4712 25.2596 27.6587 23.9183 26.1106C30.8702 25.3702 32 21.3606 32 18.4615C32 17.0962 31.4567 15.5817 30.0096 15.0144C29.0769 14.6442 27.9183 14.9808 27.3798 15.8269C27.2885 15.9808 27.1442 16.2644 27.1731 16.4423C27.1971 16.6202 27.3654 16.7885 27.5433 16.7596C27.6635 16.7404 27.7548 16.6442 27.851 16.5673C28.3798 16.1346 29.2212 16.226 29.7356 16.6731C30.25 17.1202 30.1875 17.8173 30.1442 18.5C30.0337 20.1923 28.5048 21.4519 26.7452 21.7596C24.4423 22.1587 22.4183 20.75 22.976 17.7644C23.524 14.8077 25.8462 12.6635 25.8462 8.77885C25.8462 2.53365 21.4375 0 16 0C10.5625 0 6.15385 2.51442 6.15385 8.39904C6.15385 12.4375 8.6875 15.0096 9.19231 17.9952C9.77404 21.4135 6.60577 21.8942 5.25 21.7596C3.47596 21.5817 1.96635 20.1971 1.85577 18.5C1.8125 17.8173 1.75 17.1202 2.26442 16.6731C2.77885 16.226 3.61538 16.1346 4.14423 16.5673C4.24039 16.6442 4.33654 16.7404 4.45673 16.7596C4.63462 16.7885 4.79808 16.6202 4.82692 16.4423C4.85577 16.2644 4.71154 15.9808 4.61538 15.8269C4.08173 14.9808 2.92308 14.6442 1.99039 15.0144C0.543269 15.5817 0 17.0962 0 18.4615C0 21.3606 1.12981 25.3702 8.08173 26.1106C6.74039 27.6587 5.02404 28.4712 4.08654 28.4712C1.11538 28.4712 0.822116 25.9038 0.442308 25.9038C0.0625001 25.9038 0.0384615 26.3462 0.0384615 26.6346C0.0384615 28.9423 1.13462 30.5625 4.45192 30.7692C8.33654 31.0096 11.8125 28.6154 13.4327 26.4375C14.2067 25.399 14.8846 24.5913 16 24.5192C17.1154 24.5913 17.7933 25.3558 18.5673 26.3942C20.1875 28.5721 23.6635 31.0096 27.5433 30.7644C30.8654 30.5625 31.9615 28.9423 31.9615 26.6346C31.9615 26.3462 31.9375 25.9038 31.5577 25.9038ZM13.5385 12.3077C12.8606 12.3077 12.3077 11.4808 12.3077 10.4615C12.3077 9.44231 12.8606 8.61539 13.5385 8.61539C14.2163 8.61539 14.7692 9.44231 14.7692 10.4615C14.7692 11.4808 14.2163 12.3077 13.5385 12.3077ZM18.4615 12.3077C17.7837 12.3077 17.2308 11.4808 17.2308 10.4615C17.2308 9.44231 17.7837 8.61539 18.4615 8.61539C19.1394 8.61539 19.6923 9.44231 19.6923 10.4615C19.6923 11.4808 19.1394 12.3077 18.4615 12.3077Z" fill="#29D8FE"/>
</svg>
