<svg width="50" height="50" viewBox="0 0 50 50" fill="none" xmlns="http://www.w3.org/2000/svg">
    <path d="M40.5577 34.9038C40.1779 34.9038 39.8894 37.4712 36.9135 37.4712C35.976 37.4712 34.2596 36.6587 32.9183 35.1106C39.8702 34.3702 41 30.3606 41 27.4615C41 26.0962 40.4567 24.5817 39.0096 24.0144C38.0769 23.6442 36.9183 23.9808 36.3798 24.8269C36.2885 24.9808 36.1442 25.2644 36.1731 25.4423C36.1971 25.6202 36.3654 25.7885 36.5433 25.7596C36.6635 25.7404 36.7548 25.6442 36.851 25.5673C37.3798 25.1346 38.2212 25.226 38.7356 25.6731C39.25 26.1202 39.1875 26.8173 39.1442 27.5C39.0337 29.1923 37.5048 30.4519 35.7452 30.7596C33.4423 31.1587 31.4183 29.75 31.976 26.7644C32.524 23.8077 34.8462 21.6635 34.8462 17.7788C34.8462 11.5337 30.4375 9 25 9C19.5625 9 15.1538 11.5144 15.1538 17.399C15.1538 21.4375 17.6875 24.0096 18.1923 26.9952C18.774 30.4135 15.6058 30.8942 14.25 30.7596C12.476 30.5817 10.9663 29.1971 10.8558 27.5C10.8125 26.8173 10.75 26.1202 11.2644 25.6731C11.7788 25.226 12.6154 25.1346 13.1442 25.5673C13.2404 25.6442 13.3365 25.7404 13.4567 25.7596C13.6346 25.7885 13.7981 25.6202 13.8269 25.4423C13.8558 25.2644 13.7115 24.9808 13.6154 24.8269C13.0817 23.9808 11.9231 23.6442 10.9904 24.0144C9.54327 24.5817 9 26.0962 9 27.4615C9 30.3606 10.1298 34.3702 17.0817 35.1106C15.7404 36.6587 14.024 37.4712 13.0865 37.4712C10.1154 37.4712 9.82212 34.9038 9.44231 34.9038C9.0625 34.9038 9.03846 35.3462 9.03846 35.6346C9.03846 37.9423 10.1346 39.5625 13.4519 39.7692C17.3365 40.0096 20.8125 37.6154 22.4327 35.4375C23.2067 34.399 23.8846 33.5913 25 33.5192C26.1154 33.5913 26.7933 34.3558 27.5673 35.3942C29.1875 37.5721 32.6635 40.0096 36.5433 39.7644C39.8654 39.5625 40.9615 37.9423 40.9615 35.6346C40.9615 35.3462 40.9375 34.9038 40.5577 34.9038ZM22.5385 21.3077C21.8606 21.3077 21.3077 20.4808 21.3077 19.4615C21.3077 18.4423 21.8606 17.6154 22.5385 17.6154C23.2163 17.6154 23.7692 18.4423 23.7692 19.4615C23.7692 20.4808 23.2163 21.3077 22.5385 21.3077ZM27.4615 21.3077C26.7837 21.3077 26.2308 20.4808 26.2308 19.4615C26.2308 18.4423 26.7837 17.6154 27.4615 17.6154C28.1394 17.6154 28.6923 18.4423 28.6923 19.4615C28.6923 20.4808 28.1394 21.3077 27.4615 21.3077Z" fill="#29D8FE"/>
</svg>
