<svg width="40" height="40" viewBox="0 0 40 40" fill="none" xmlns="http://www.w3.org/2000/svg">
<circle cx="19.5" cy="19.5" r="11.5" fill="#BBE4FC"/>
<path d="M25.1668 18.4168H20.5832V13.8332C20.5832 13.235 20.0982 12.75 19.5 12.75C18.9018 12.75 18.4168 13.235 18.4168 13.8332V18.4168H13.8332C13.235 18.4168 12.75 18.9018 12.75 19.5C12.75 20.0982 13.235 20.5832 13.8332 20.5832H18.4168V25.1668C18.4168 25.765 18.9018 26.25 19.5 26.25C20.0982 26.25 20.5832 25.765 20.5832 25.1668V20.5832H25.1668C25.765 20.5832 26.25 20.0982 26.25 19.5C26.25 18.9018 25.765 18.4168 25.1668 18.4168Z" fill="#0D80D8"/>
</svg>
