<svg width="48" height="49" viewBox="0 0 48 49" fill="none" xmlns="http://www.w3.org/2000/svg">
    <path d="M39.8003 7.98316C39.8003 7.98316 28.4885 7.95609 19.6694 16.7752C19.2622 17.1824 18.9077 17.6257 18.5867 18.0843C17.0231 17.9593 14.6296 18.0001 13.4044 19.2261C10.5445 22.086 9.59035 26.8543 9.59035 26.8543L15.8897 25.9536V28.1141L19.6694 31.8938H21.8299L20.9292 38.1932C20.9292 38.1932 25.6975 37.239 28.5574 34.3791C29.7834 33.1539 29.8242 30.7605 29.6992 29.1968C30.1578 28.8758 30.6011 28.5213 31.0083 28.1141C39.8274 19.295 39.8003 7.98316 39.8003 7.98316ZM29.7484 15.5154C31.1406 15.5154 32.2682 16.6429 32.2682 18.0351C32.2682 19.4273 31.1406 20.5549 29.7484 20.5549C28.3562 20.5549 27.2286 19.4273 27.2286 18.0351C27.2286 16.6429 28.3562 15.5154 29.7484 15.5154ZM14.8808 29.3691C14.4021 29.4951 13.9484 29.7356 13.5742 30.1098C11.8532 31.8308 12.1273 35.6537 12.1273 35.6537C12.1273 35.6537 15.9252 35.9505 17.6688 34.2068C18.043 33.8326 18.2835 33.3765 18.4095 32.8977L17.8337 32.3219C17.777 32.4026 17.7419 32.4962 17.6688 32.568C16.4404 33.7964 14.5979 33.1832 14.5979 33.1832C14.5979 33.1832 13.9834 31.3406 15.213 30.1122C15.2861 30.0391 15.376 30.0053 15.4567 29.9474L14.8808 29.3691Z" fill="#03A9F4"/>
</svg>
