<svg width="31" height="32" viewBox="0 0 31 32" fill="none" xmlns="http://www.w3.org/2000/svg">
    <path d="M30.8003 0.983155C30.8003 0.983155 19.4885 0.956087 10.6694 9.77523C10.2622 10.1824 9.90766 10.6257 9.58666 11.0843C8.02305 10.9593 5.62956 11.0001 4.40443 12.2261C1.54451 15.086 0.590347 19.8543 0.590347 19.8543L6.88974 18.9536V21.1141L10.6694 24.8938H12.8299L11.9292 31.1932C11.9292 31.1932 16.6975 30.239 19.5574 27.3791C20.7834 26.1539 20.8242 23.7605 20.6992 22.1968C21.1578 21.8758 21.6011 21.5213 22.0083 21.1141C30.8274 12.295 30.8003 0.983155 30.8003 0.983155ZM20.7484 8.51536C22.1406 8.51536 23.2682 9.64295 23.2682 11.0351C23.2682 12.4273 22.1406 13.5549 20.7484 13.5549C19.3562 13.5549 18.2286 12.4273 18.2286 11.0351C18.2286 9.64295 19.3562 8.51536 20.7484 8.51536ZM5.88085 22.3691C5.4021 22.4951 4.9484 22.7356 4.57422 23.1098C2.85323 24.8308 3.12733 28.6537 3.12733 28.6537C3.12733 28.6537 6.92515 28.9505 8.66882 27.2068C9.043 26.8326 9.2835 26.3765 9.40949 25.8977L8.83369 25.3219C8.77699 25.4026 8.74189 25.4962 8.66882 25.568C7.44044 26.7964 5.59787 26.1832 5.59787 26.1832C5.59787 26.1832 4.9834 24.3406 6.21304 23.1122C6.28612 23.0391 6.37602 23.0053 6.45665 22.9474L5.88085 22.3691Z" fill="#03A9F4"/>
</svg>
