<svg height="368" viewBox=".9 .5 172.3 25.7" width="2500" xmlns="http://www.w3.org/2000/svg"><g clip-rule="evenodd" fill-rule="evenodd"><path d="m42.8 8.4c-1.9 0-3.5.7-4.8 1.7v-1.6h-4.4v17.1h4.6v-10.9c.6-.9 2.2-2.1 4.1-2.1.7 0 1.3.1 1.8.3v-4.4c-.4-.1-.8-.1-1.3-.1m-39.8 12c1.2 1.1 2.9 1.7 4.7 1.7 1.2 0 2.2-.6 2.2-1.4 0-2.6-8.2-1.7-8.2-7.2 0-3.3 3.2-5.3 6.5-5.3 2.2 0 4.6.8 5.8 1.7l-2.1 3.3c-.9-.6-2-1.2-3.3-1.2s-2.3.5-2.3 1.4c0 2.2 8.2 1.3 8.2 7.3 0 3.3-3.2 5.3-6.8 5.3-2.4 0-4.8-.8-6.8-2.3zm28.7-3.5c0-4.8-3.3-8.7-8-8.7-5.1 0-8.3 4.2-8.3 8.9 0 5.4 3.8 8.9 8.9 8.9 2.6 0 5.3-1.1 7-3.1l-2.6-2.6c-.8.9-2.4 2-4.3 2-2.4 0-4.4-1.7-4.6-4.1h11.8c0-.4.1-.8.1-1.3m-11.7-2c.2-1.6 1.8-3 3.6-3 1.9 0 3.2 1.5 3.4 3zm35 4.1 4.7-10.5h4.7l-7.8 17.1h-3.2l-7.8-17.1h4.8zm13.3-18.5c1.6 0 3 1.3 3 2.9s-1.3 2.9-3 2.9-3-1.3-3-2.9 1.3-2.9 3-2.9m-2.3 8h4.6v17.1h-4.6zm23.4 13.6c-2 2.7-4.5 3.8-7.7 3.8-5.3 0-9.1-4-9.1-8.9 0-5 4-8.9 9.2-8.9 2.9 0 5.6 1.4 7.2 3.4l-3.2 2.9c-.9-1.2-2.3-2-3.9-2-2.6 0-4.6 2.1-4.6 4.7 0 2.7 1.9 4.7 4.7 4.7 1.9 0 3.3-1.1 4.1-2.3zm16.6.8c-1.6 2-4.4 3.1-7 3.1-5.1 0-8.9-3.5-8.9-8.9 0-4.8 3.2-8.9 8.3-8.9 4.7 0 8 4 8 8.7 0 .5 0 .9-.1 1.3h-11.8c.2 2.4 2.2 4.1 4.6 4.1 1.9 0 3.5-1.1 4.3-2zm-4.3-8c-.1-1.5-1.5-3-3.4-3s-3.4 1.4-3.6 3zm6.5 10.7v-17.1h4.4v1.4c1.3-1.1 2.9-1.7 4.8-1.7 2.4 0 4.5 1.1 5.9 2.8 1.1 1.3 1.8 3.1 1.8 6v8.7h-4.6v-9.1c0-1.7-.4-2.6-1-3.2s-1.5-1-2.6-1c-1.9 0-3.5 1.2-4.1 2.1v11.1z" fill="#293f41"/><path d="m136.8 8.2c-5.4 0-10 4.4-10 9.9 0 2.9 1.2 5.5 3.1 7.4.7.7 1.8.7 2.6.1 1.1-.9 2.6-1.4 4.3-1.4s3.1.5 4.3 1.4c.8.6 1.9.5 2.6-.2 1.9-1.8 3.1-4.4 3.1-7.3-.1-5.4-4.5-9.9-10-9.9m-.1 15c-2.9 0-5-2.2-5-5s2-5 5-5 5 2.3 5 5-2 5-5 5" fill="#82b6a1"/><path d="m155.7 25.6h-3.4l-6.8-17.1h4.6l3.7 9.8 3.7-9.8h3.8l3.6 9.8 3.7-9.8h4.6l-6.8 17.1h-3.4l-3.6-9.7z" fill="#293f41"/></g><path d="m170.7 23.5v.3h-.6v1.8h-.4v-1.8h-.6v-.3zm1.4 1.3.8-1.3h.3v2.1h-.4v-1.2l-.6.9h-.3l-.5-.9v1.2h-.4v-2.1h.3z" fill="#293f41"/></svg>