<?xml version="1.0" encoding="utf-8"?>
<!-- Svg Vector Icons : http://www.onlinewebfonts.com/icon -->
<!DOCTYPE svg PUBLIC "-//W3C//DTD SVG 1.1//EN" "http://www.w3.org/Graphics/SVG/1.1/DTD/svg11.dtd">
<svg version="1.1" xmlns="http://www.w3.org/2000/svg" xmlns:xlink="http://www.w3.org/1999/xlink" x="0px" y="0px" viewBox="0 0 1000 1000" enable-background="new 0 0 1000 1000" xml:space="preserve">
<metadata> Svg Vector Icons : http://www.onlinewebfonts.com/icon </metadata>
<g><g><path d="M770,430c-31.2-120.6-139.7-210-270-210c-130.3,0-238.8,89.4-270.1,210H10v140h219.9C261.2,690.6,369.7,780,500,780c130.3,0,238.8-89.4,270-210h220V430H770z M500,640c-77.3,0-140-62.8-140-140c0-77.3,62.7-140,140-140c77.2,0,140,62.7,140,140C640,577.2,577.2,640,500,640z"/></g></g>
</svg>