<svg width="40" height="40" viewBox="0 0 40 40" fill="none" xmlns="http://www.w3.org/2000/svg">
<path d="M30.9149 26.325H9.81462C6.81106 26.325 4.37695 23.8897 4.37695 20.8861C4.37695 17.8818 6.81145 15.4473 9.81462 15.4473H30.9149C33.9185 15.4473 36.3526 17.8826 36.3526 20.8861C36.3534 23.8897 33.9185 26.325 30.9149 26.325Z" fill="#0F61A5"/>
<path d="M30.9176 26.703H9.8173C6.60932 26.703 4 24.0929 4 20.8845C4 17.6761 6.60932 15.0664 9.8173 15.0664H30.9176C34.1248 15.0664 36.7349 17.6761 36.7349 20.8845C36.7349 24.0929 34.1248 26.703 30.9176 26.703ZM9.8173 15.8237C7.02684 15.8237 4.7573 18.0936 4.7573 20.8845C4.7573 23.6753 7.02684 25.9453 9.8173 25.9453H30.9176C33.7077 25.9453 35.9776 23.6753 35.9776 20.8845C35.9776 18.0936 33.7077 15.8237 30.9176 15.8237H9.8173Z" fill="#142839"/>
<path d="M30.562 24.7317H10.1721C7.20878 24.7317 4.80664 22.3291 4.80664 19.3654C4.80664 16.4025 7.20878 14 10.1721 14H30.562C33.525 14 35.9271 16.4025 35.9271 19.3662C35.9271 22.3291 33.525 24.7317 30.562 24.7317Z" fill="#0D80D8"/>
<path d="M11.4641 21.1851V17.2916H12.2872V20.5064H13.9564V21.1851H11.4641ZM18.4096 19.2383C18.4096 19.6629 18.3291 20.0241 18.1681 20.322C18.0084 20.6198 17.7904 20.8473 17.5141 21.0045C17.2391 21.1603 16.9299 21.2383 16.5864 21.2383C16.2404 21.2383 15.9299 21.1597 15.6549 21.0026C15.3799 20.8454 15.1625 20.6179 15.0028 20.3201C14.8431 20.0222 14.7633 19.6617 14.7633 19.2383C14.7633 18.8138 14.8431 18.4526 15.0028 18.1547C15.1625 17.8569 15.3799 17.63 15.6549 17.4741C15.9299 17.317 16.2404 17.2384 16.5864 17.2384C16.9299 17.2384 17.2391 17.317 17.5141 17.4741C17.7904 17.63 18.0084 17.8569 18.1681 18.1547C18.3291 18.4526 18.4096 18.8138 18.4096 19.2383ZM17.575 19.2383C17.575 18.9633 17.5338 18.7314 17.4514 18.5426C17.3703 18.3537 17.2556 18.2105 17.1073 18.1129C16.959 18.0153 16.7854 17.9665 16.5864 17.9665C16.3874 17.9665 16.2138 18.0153 16.0655 18.1129C15.9172 18.2105 15.8019 18.3537 15.7195 18.5426C15.6384 18.7314 15.5978 18.9633 15.5978 19.2383C15.5978 19.5134 15.6384 19.7453 15.7195 19.9341C15.8019 20.123 15.9172 20.2662 16.0655 20.3638C16.2138 20.4614 16.3874 20.5102 16.5864 20.5102C16.7854 20.5102 16.959 20.4614 17.1073 20.3638C17.2556 20.2662 17.3703 20.123 17.4514 19.9341C17.5338 19.7453 17.575 19.5134 17.575 19.2383ZM22.0828 18.5502C22.0562 18.4576 22.0188 18.3759 21.9706 18.3049C21.9225 18.2327 21.8635 18.1718 21.7938 18.1224C21.7254 18.0717 21.6468 18.0331 21.5581 18.0064C21.4707 17.9798 21.3737 17.9665 21.2672 17.9665C21.0683 17.9665 20.8934 18.016 20.7425 18.1148C20.593 18.2137 20.4764 18.3575 20.3927 18.5464C20.3091 18.7339 20.2673 18.9633 20.2673 19.2345C20.2673 19.5058 20.3085 19.7364 20.3908 19.9265C20.4732 20.1166 20.5898 20.2618 20.7406 20.3619C20.8915 20.4607 21.0695 20.5102 21.2748 20.5102C21.4612 20.5102 21.6202 20.4772 21.752 20.4113C21.8851 20.3441 21.9865 20.2497 22.0562 20.1281C22.1272 20.0064 22.1627 19.8625 22.1627 19.6965L22.3299 19.7212H21.3262V19.1015H22.9554V19.592C22.9554 19.9341 22.8832 20.2282 22.7387 20.4741C22.5942 20.7187 22.3952 20.9075 22.1417 21.0406C21.8883 21.1724 21.598 21.2383 21.271 21.2383C20.906 21.2383 20.5854 21.1578 20.3091 20.9969C20.0328 20.8346 19.8173 20.6046 19.6627 20.3068C19.5094 20.0077 19.4327 19.6528 19.4327 19.2422C19.4327 18.9266 19.4783 18.6452 19.5696 18.3981C19.6621 18.1497 19.7914 17.9393 19.9574 17.7669C20.1234 17.5945 20.3167 17.4634 20.5372 17.3734C20.7577 17.2834 20.9967 17.2384 21.2539 17.2384C21.4745 17.2384 21.6798 17.2707 21.8699 17.3354C22.06 17.3987 22.2286 17.4887 22.3756 17.6053C22.5239 17.7219 22.6449 17.8607 22.7387 18.0217C22.8325 18.1813 22.8927 18.3575 22.9193 18.5502H22.0828ZM24.8787 17.2916V21.1851H24.0555V17.2916H24.8787ZM29.2943 17.2916V21.1851H28.5833L26.8895 18.7346H26.8609V21.1851H26.0378V17.2916H26.7602L28.4408 19.7402H28.475V17.2916H29.2943Z" fill="white"/>
<path d="M33.7165 36.7988L33.7146 36.7981C33.6747 36.7829 33.6423 36.752 33.6249 36.7117L31.5678 31.9502L31.4598 31.7001L31.2613 31.8868L28.7017 34.2947C28.7017 34.2948 28.7016 34.2949 28.7015 34.2949C28.6543 34.339 28.5859 34.3509 28.5264 34.3255C28.4679 34.3 28.4295 34.2415 28.4295 34.1771V22.5307C28.4295 22.4662 28.4676 22.4081 28.5266 22.3824L28.5266 22.3824L28.5273 22.3822C28.5849 22.3569 28.6539 22.3684 28.701 22.4124L28.7011 22.4125L37.1615 30.3175C37.1615 30.3176 37.1615 30.3176 37.1616 30.3176C37.2085 30.3617 37.225 30.4292 37.2043 30.489L37.2043 30.489C37.1834 30.5497 37.1289 30.592 37.0656 30.5975L33.4753 30.9073L33.2048 30.9306L33.3179 31.1774L35.4706 35.8741C35.4707 35.8741 35.4707 35.8742 35.4707 35.8742C35.4886 35.9135 35.4901 35.9586 35.4752 35.9981L35.475 35.9986C35.4597 36.0396 35.4295 36.0719 35.391 36.0893L35.3908 36.0894L33.8416 36.7946C33.8184 36.8046 33.7954 36.8092 33.773 36.8092C33.7528 36.8092 33.7337 36.8056 33.7165 36.7988ZM28.4504 22.2071C28.5784 22.1509 28.729 22.1768 28.8317 22.2728L28.4504 22.2071Z" fill="white" stroke="#142839" stroke-width="0.382389"/>
</svg>
