<svg width="28" height="28" viewBox="0 0 28 28" fill="none" xmlns="http://www.w3.org/2000/svg">
	<path d="M1.25 19.25H8.75V26.75H1.25V19.25Z" fill="#00BCD4"/>
	<path d="M22.4756 10.4756L18.2744 6.27441C17.9756 5.97559 17.9756 5.52441 18.2744 5.22559L22.4756 1.02441C22.7744 0.725586 23.2256 0.725586 23.5244 1.02441L27.7256 5.22559C28.0244 5.52441 28.0244 5.97559 27.7256 6.27441L23.5244 10.4756C23.2256 10.7744 22.7744 10.7744 22.4756 10.4756Z" fill="#00BCD4"/>
	<path d="M9.5 5.75C9.5 8.23438 7.48438 10.25 5 10.25C2.51562 10.25 0.5 8.23438 0.5 5.75C0.5 3.26562 2.51562 1.25 5 1.25C7.48438 1.25 9.5 3.26562 9.5 5.75Z" fill="#3F51B5"/>
	<path d="M27.5 23C27.5 25.4844 25.4844 27.5 23 27.5C20.5156 27.5 18.5 25.4844 18.5 23C18.5 20.5156 20.5156 18.5 23 18.5C25.4844 18.5 27.5 20.5156 27.5 23Z" fill="#448AFF"/>
	<path d="M4.25 14H5.75V17.75H4.25V14Z" fill="#90A4AE"/>
	<path d="M5 11.75L2.75 14.75H7.25L5 11.75Z" fill="#90A4AE"/>
	<path d="M11 5H14.75V6.5H11V5Z" fill="#90A4AE"/>
	<path d="M17 5.75L14 3.5V8L17 5.75Z" fill="#90A4AE"/>
	<path d="M22.25 11.75H23.75V15.5H22.25V11.75Z" fill="#90A4AE"/>
	<path d="M23 17.75L25.25 14.75H20.75L23 17.75Z" fill="#90A4AE"/>
</svg>
