<svg width="22" height="28" viewBox="0 0 22 28" fill="none" xmlns="http://www.w3.org/2000/svg">
    <path d="M4.125 0.5C1.86311 0.5 0 2.36311 0 4.625C0 6.4031 1.15867 7.91832 2.75 8.49219V18.375V20.0078C1.15867 20.5817 0 22.0969 0 23.875C0 26.1369 1.86311 28 4.125 28C6.38689 28 8.25 26.1369 8.25 23.875C8.25 22.0969 7.09133 20.5817 5.5 20.0078V18.375C5.5 17.5729 5.88073 17.123 6.96631 16.4898C8.05188 15.8565 9.71584 15.2961 11.4539 14.6878C13.1919 14.0794 15.0135 13.4224 16.5269 12.3379C17.7584 11.4553 18.7774 10.1588 19.1184 8.53516C20.7771 7.99978 22 6.4515 22 4.625C22 2.36311 20.1369 0.5 17.875 0.5C15.6131 0.5 13.75 2.36311 13.75 4.625C13.75 6.33627 14.8187 7.81517 16.3174 8.4358C16.0908 9.08682 15.6452 9.58831 14.9263 10.1035C13.8615 10.8666 12.2456 11.4987 10.5461 12.0935C8.84666 12.6883 7.07311 13.2451 5.58056 14.1157C5.55263 14.132 5.52782 14.1554 5.5 14.1721V8.49219C7.09133 7.91832 8.25 6.4031 8.25 4.625C8.25 2.36311 6.38689 0.5 4.125 0.5ZM4.125 3.25C4.90068 3.25 5.5 3.84932 5.5 4.625C5.5 5.40068 4.90068 6 4.125 6C3.34932 6 2.75 5.40068 2.75 4.625C2.75 3.84932 3.34932 3.25 4.125 3.25ZM17.875 3.25C18.6507 3.25 19.25 3.84932 19.25 4.625C19.25 5.40068 18.6507 6 17.875 6C17.0993 6 16.5 5.40068 16.5 4.625C16.5 3.84932 17.0993 3.25 17.875 3.25ZM4.125 22.5C4.90068 22.5 5.5 23.0993 5.5 23.875C5.5 24.6507 4.90068 25.25 4.125 25.25C3.34932 25.25 2.75 24.6507 2.75 23.875C2.75 23.0993 3.34932 22.5 4.125 22.5Z" fill="#34CAEB"/>
</svg>
