<svg width="48" height="49" viewBox="0 0 48 49" fill="none" xmlns="http://www.w3.org/2000/svg">
    <path d="M17.125 10.5C14.8631 10.5 13 12.3631 13 14.625C13 16.4031 14.1587 17.9183 15.75 18.4922V28.375V30.0078C14.1587 30.5817 13 32.0969 13 33.875C13 36.1369 14.8631 38 17.125 38C19.3869 38 21.25 36.1369 21.25 33.875C21.25 32.0969 20.0913 30.5817 18.5 30.0078V28.375C18.5 27.5729 18.8807 27.123 19.9663 26.4898C21.0519 25.8565 22.7158 25.2961 24.4539 24.6878C26.1919 24.0794 28.0135 23.4224 29.5269 22.3379C30.7584 21.4553 31.7774 20.1588 32.1184 18.5352C33.7771 17.9998 35 16.4515 35 14.625C35 12.3631 33.1369 10.5 30.875 10.5C28.6131 10.5 26.75 12.3631 26.75 14.625C26.75 16.3363 27.8187 17.8152 29.3174 18.4358C29.0908 19.0868 28.6452 19.5883 27.9263 20.1035C26.8615 20.8666 25.2456 21.4987 23.5461 22.0935C21.8467 22.6883 20.0731 23.2451 18.5806 24.1157C18.5526 24.132 18.5278 24.1554 18.5 24.1721V18.4922C20.0913 17.9183 21.25 16.4031 21.25 14.625C21.25 12.3631 19.3869 10.5 17.125 10.5ZM17.125 13.25C17.9007 13.25 18.5 13.8493 18.5 14.625C18.5 15.4007 17.9007 16 17.125 16C16.3493 16 15.75 15.4007 15.75 14.625C15.75 13.8493 16.3493 13.25 17.125 13.25ZM30.875 13.25C31.6507 13.25 32.25 13.8493 32.25 14.625C32.25 15.4007 31.6507 16 30.875 16C30.0993 16 29.5 15.4007 29.5 14.625C29.5 13.8493 30.0993 13.25 30.875 13.25ZM17.125 32.5C17.9007 32.5 18.5 33.0993 18.5 33.875C18.5 34.6507 17.9007 35.25 17.125 35.25C16.3493 35.25 15.75 34.6507 15.75 33.875C15.75 33.0993 16.3493 32.5 17.125 32.5Z" fill="#34CAEB"/>
</svg>
