<svg width="273" height="122" viewBox="0 0 273 122" fill="none" xmlns="http://www.w3.org/2000/svg">
<rect y="0.75" width="273" height="121" fill="#DE4C36"/>
<path fill-rule="evenodd" clip-rule="evenodd" d="M116.95 31.9251C116.95 30.1265 118.41 28.6667 120.208 28.6667H162.567C166.167 28.6667 169.083 31.583 169.083 35.1834V77.5417C169.083 79.3404 167.624 80.8001 165.825 80.8001C164.026 80.8001 162.567 79.3404 162.567 77.5417V35.1834H120.208C118.41 35.1834 116.95 33.7237 116.95 31.9251ZM103.917 48.2167C103.917 44.6163 106.833 41.7001 110.433 41.7001H149.533C153.134 41.7001 156.05 44.6163 156.05 48.2167V87.3167C156.05 90.9172 153.134 93.8334 149.533 93.8334H110.433C106.833 93.8334 103.917 90.9172 103.917 87.3167V48.2167ZM131.283 51.5071L146.694 66.917H146.694C147.582 67.8045 147.582 69.2449 146.694 70.1328L131.355 85.4715C130.467 86.3592 129.028 86.3592 128.14 85.4715L112.729 70.0613C111.841 69.1736 111.841 67.7341 112.729 66.8457L123.296 56.2795L127.298 60.2817C126.888 61.2646 127.08 62.4392 127.881 63.2386C128.133 63.4927 128.434 63.6934 128.766 63.8288V73.5196C128.435 73.656 128.134 73.8566 127.881 74.1099C126.824 75.166 126.824 76.8778 127.881 77.9354C128.936 78.9918 130.649 78.9918 131.705 77.9354C132.762 76.8778 132.762 75.1659 131.705 74.1098C131.496 73.9017 131.255 73.729 130.99 73.5982L130.99 63.9969L134.639 67.6454C134.237 68.6245 134.433 69.7916 135.228 70.5871C136.285 71.6441 137.997 71.6441 139.054 70.5871C140.11 69.5303 140.11 67.8186 139.054 66.7624C138.298 66.0052 137.206 65.7943 136.259 66.1203L132.347 62.208C132.673 61.2616 132.461 60.1705 131.705 59.4137C130.953 58.6618 129.872 58.4479 128.928 58.7667L124.869 54.7072L128.069 51.5071C128.957 50.6195 130.396 50.6195 131.283 51.5071Z" fill="white"/>
</svg>
