<svg width="48" height="49" viewBox="0 0 48 49" fill="none" xmlns="http://www.w3.org/2000/svg">
    <path fill-rule="evenodd" clip-rule="evenodd" d="M13.8 8.95C13.8 8.0116 14.5616 7.25 15.5 7.25H37.6C39.4785 7.25 41 8.7715 41 10.65V32.75C41 33.6884 40.2384 34.45 39.3 34.45C38.3616 34.45 37.6 33.6884 37.6 32.75V10.65H15.5C14.5616 10.65 13.8 9.8884 13.8 8.95ZM7 17.45C7 15.5715 8.5215 14.05 10.4 14.05H30.8C32.6785 14.05 34.2 15.5715 34.2 17.45V37.85C34.2 39.7285 32.6785 41.25 30.8 41.25H10.4C8.5215 41.25 7 39.7285 7 37.85V17.45ZM21.2783 19.1667L29.3187 27.2067H29.3186C29.7817 27.6698 29.7817 28.4213 29.3186 28.8845L21.3157 36.8873C20.8522 37.3504 20.1013 37.3504 19.6384 36.8873L11.5979 28.8472C11.1346 28.3841 11.1346 27.633 11.5979 27.1695L17.111 21.6567L19.1989 23.7448C18.9849 24.2576 19.0853 24.8704 19.503 25.2875C19.6347 25.4201 19.7918 25.5248 19.9649 25.5955V30.6516C19.7921 30.7227 19.6351 30.8274 19.503 30.9595C18.9517 31.5105 18.9517 32.4036 19.503 32.9555C20.0536 33.5066 20.9471 33.5066 21.4985 32.9555C22.0497 32.4036 22.0497 31.5105 21.4985 30.9594C21.3893 30.8509 21.2632 30.7608 21.1253 30.6926L21.1255 25.6832L23.029 27.5867C22.8191 28.0976 22.9216 28.7065 23.3362 29.1216C23.8879 29.673 24.781 29.673 25.3323 29.1216C25.8836 28.5702 25.8836 27.6771 25.3323 27.1261C24.9379 26.731 24.3681 26.6209 23.8743 26.7911L21.8331 24.7498C22.0034 24.256 21.8927 23.6868 21.4985 23.292C21.1061 22.8996 20.5417 22.788 20.0495 22.9544L17.9315 20.8364L19.6012 19.1667C20.0645 18.7037 20.8155 18.7037 21.2783 19.1667Z" fill="#DE4C36"/>
</svg>
