<svg width="93" height="93" viewBox="0 0 93 93" fill="none" xmlns="http://www.w3.org/2000/svg">
    <path fill-rule="evenodd" clip-rule="evenodd" d="M26.95 16.9251C26.95 15.1265 28.4097 13.6667 30.2083 13.6667H72.5667C76.1671 13.6667 79.0833 16.583 79.0833 20.1834V62.5417C79.0833 64.3404 77.6236 65.8001 75.825 65.8001C74.0264 65.8001 72.5667 64.3404 72.5667 62.5417V20.1834H30.2083C28.4097 20.1834 26.95 18.7237 26.95 16.9251ZM13.9167 33.2167C13.9167 29.6163 16.8329 26.7001 20.4333 26.7001H59.5333C63.1338 26.7001 66.05 29.6163 66.05 33.2167V72.3167C66.05 75.9172 63.1338 78.8334 59.5333 78.8334H20.4333C16.8329 78.8334 13.9167 75.9172 13.9167 72.3167V33.2167ZM41.2833 36.5071L56.6941 51.917H56.694C57.5816 52.8045 57.5816 54.2449 56.694 55.1328L41.355 70.4715C40.4667 71.3592 39.0275 71.3592 38.1403 70.4715L22.7292 55.0613C21.8413 54.1736 21.8413 52.7341 22.7292 51.8457L33.2961 41.2795L37.2979 45.2817C36.8877 46.2646 37.0802 47.4392 37.8807 48.2386C38.1332 48.4927 38.4343 48.6934 38.766 48.8288V58.5196C38.4348 58.656 38.1339 58.8566 37.8807 59.1099C36.8241 60.166 36.8241 61.8778 37.8807 62.9354C38.936 63.9918 40.6485 63.9918 41.7054 62.9354C42.7619 61.8778 42.7619 60.1659 41.7054 59.1098C41.4961 58.9018 41.2545 58.729 40.9901 58.5982L40.9905 48.9969L44.639 52.6454C44.2367 53.6245 44.433 54.7916 45.2277 55.5871C46.2851 56.6441 47.9968 56.6441 49.0537 55.5871C50.1102 54.5303 50.1102 52.8186 49.0537 51.7624C48.2977 51.0052 47.2056 50.7943 46.259 51.1203L42.3468 47.208C42.6733 46.2616 42.4609 45.1705 41.7054 44.4137C40.9534 43.6618 39.8716 43.4479 38.9283 43.7667L34.8687 39.7072L38.0689 36.5071C38.9569 35.6195 40.3964 35.6195 41.2833 36.5071Z" fill="white"/>
</svg>
