<svg width="48" height="49" viewBox="0 0 48 49" fill="none" xmlns="http://www.w3.org/2000/svg">
    <path d="M6.40227 13.5C6.40227 11.2909 8.19313 9.5 10.4023 9.5H37.5977C39.8069 9.5 41.5977 11.2909 41.5977 13.5V39.5427H6.40227V13.5Z" fill="#D6D6D6"/>
    <rect x="8.82143" y="15.5" width="30.3571" height="20.5" fill="black"/>
    <path d="M26.6586 23.1356C26.4861 23.0037 26.3186 22.8869 26.1562 22.7855C25.9939 22.6738 25.8264 22.5825 25.6539 22.5114C25.4813 22.4404 25.2987 22.3846 25.1058 22.344C24.913 22.3034 24.6948 22.2831 24.4512 22.2831C23.9844 22.2831 23.6139 22.3846 23.3399 22.5876C23.076 22.7804 22.9441 23.0544 22.9441 23.4096C22.9441 23.6633 23.0608 23.8765 23.2942 24.049C23.5277 24.2114 23.8169 24.3636 24.162 24.5057C24.5172 24.6478 24.8978 24.7949 25.3037 24.9472C25.7198 25.0893 26.1004 25.2669 26.4455 25.48C26.8007 25.6931 27.095 25.957 27.3284 26.2716C27.5619 26.5761 27.6786 26.9617 27.6786 27.4286C27.6786 28.0883 27.4401 28.6414 26.9631 29.0879C26.4861 29.5243 25.8365 29.7933 25.0145 29.8948V32.1326H23.9641V29.9252C23.416 29.8745 22.8832 29.7425 22.3656 29.5294C21.848 29.3061 21.4116 29.0372 21.0564 28.7226L21.7415 27.6874C22.1474 27.9715 22.5787 28.2151 23.0354 28.4181C23.5023 28.6109 24.0097 28.7073 24.5578 28.7073C25.0957 28.7073 25.5016 28.6008 25.7757 28.3877C26.0598 28.1745 26.2019 27.8904 26.2019 27.5351C26.2019 27.251 26.0852 27.0125 25.8518 26.8196C25.6183 26.6268 25.324 26.4543 24.9688 26.3021C24.6238 26.1498 24.2482 25.9976 23.8423 25.8454C23.4363 25.6931 23.0557 25.5155 22.7005 25.3125C22.3555 25.0994 22.0662 24.8457 21.8328 24.5514C21.5994 24.257 21.4827 23.8866 21.4827 23.4401C21.4827 22.7905 21.7059 22.2577 22.1525 21.8416C22.6092 21.4255 23.2131 21.1718 23.9641 21.0804V19.0862H25.0145V21.0652C25.5625 21.116 26.0243 21.253 26.3998 21.4762C26.7855 21.6894 27.1305 21.9482 27.435 22.2526L26.6586 23.1356Z" fill="#65D606" stroke="#65D606" stroke-linecap="round" stroke-linejoin="round"/>
</svg>
