<svg width="48" height="49" viewBox="0 0 48 49" fill="none" xmlns="http://www.w3.org/2000/svg">
    <path d="M9.92 10.4199C8.8625 10.4199 8 11.2824 8 12.3399V14.2599H40V12.3399C40 11.2824 39.1375 10.4199 38.08 10.4199H9.92ZM8 15.5399V38.5799H40V15.5399H8ZM26.56 18.0999C26.6425 18.0999 26.7175 18.1074 26.8 18.1399C27.1275 18.2749 27.295 18.6524 27.16 18.9799L21.4 33.0599C21.2975 33.3074 21.0525 33.4599 20.8 33.4599C20.72 33.4599 20.64 33.4524 20.56 33.4199C20.2325 33.2849 20.065 32.9074 20.2 32.5799L25.96 18.4999C26.06 18.2549 26.31 18.1024 26.56 18.0999ZM18.16 21.9399C18.4075 21.9099 18.6675 22.0299 18.8 22.2599C18.975 22.5674 18.8675 22.9649 18.56 23.1399L15.06 25.1399L18.56 27.1399C18.8675 27.3149 18.975 27.7124 18.8 28.0199C18.6825 28.2274 18.4625 28.3399 18.24 28.3399C18.1325 28.3399 18.02 28.3174 17.92 28.2599L13.44 25.6999C13.24 25.5849 13.12 25.3699 13.12 25.1399C13.12 24.9099 13.24 24.6949 13.44 24.5799L17.92 22.0199C17.9975 21.9774 18.0775 21.9499 18.16 21.9399ZM29.84 21.9399C29.9225 21.9499 30.0025 21.9749 30.08 22.0199L34.56 24.5799C34.76 24.6949 34.88 24.9099 34.88 25.1399C34.88 25.3699 34.76 25.5849 34.56 25.6999L30.08 28.2599C29.98 28.3174 29.8675 28.3399 29.76 28.3399C29.5375 28.3399 29.3175 28.2274 29.2 28.0199C29.025 27.7124 29.1325 27.3149 29.44 27.1399L32.94 25.1399L29.44 23.1399C29.1325 22.9649 29.025 22.5674 29.2 22.2599C29.33 22.0299 29.5925 21.9099 29.84 21.9399Z" fill="#262626"/>
</svg>
