<svg width="32" height="33" viewBox="0 0 32 33" fill="none" xmlns="http://www.w3.org/2000/svg">
    <path d="M1.92 2.41992C0.8625 2.41992 0 3.28242 0 4.33992V6.25992H32V4.33992C32 3.28242 31.1375 2.41992 30.08 2.41992H1.92ZM0 7.53992V30.5799H32V7.53992H0ZM18.56 10.0999C18.6425 10.0999 18.7175 10.1074 18.8 10.1399C19.1275 10.2749 19.295 10.6524 19.16 10.9799L13.4 25.0599C13.2975 25.3074 13.0525 25.4599 12.8 25.4599C12.72 25.4599 12.64 25.4524 12.56 25.4199C12.2325 25.2849 12.065 24.9074 12.2 24.5799L17.96 10.4999C18.06 10.2549 18.31 10.1024 18.56 10.0999ZM10.16 13.9399C10.4075 13.9099 10.6675 14.0299 10.8 14.2599C10.975 14.5674 10.8675 14.9649 10.56 15.1399L7.06 17.1399L10.56 19.1399C10.8675 19.3149 10.975 19.7124 10.8 20.0199C10.6825 20.2274 10.4625 20.3399 10.24 20.3399C10.1325 20.3399 10.02 20.3174 9.92 20.2599L5.44 17.6999C5.24 17.5849 5.12 17.3699 5.12 17.1399C5.12 16.9099 5.24 16.6949 5.44 16.5799L9.92 14.0199C9.9975 13.9774 10.0775 13.9499 10.16 13.9399ZM21.84 13.9399C21.9225 13.9499 22.0025 13.9749 22.08 14.0199L26.56 16.5799C26.76 16.6949 26.88 16.9099 26.88 17.1399C26.88 17.3699 26.76 17.5849 26.56 17.6999L22.08 20.2599C21.98 20.3174 21.8675 20.3399 21.76 20.3399C21.5375 20.3399 21.3175 20.2274 21.2 20.0199C21.025 19.7124 21.1325 19.3149 21.44 19.1399L24.94 17.1399L21.44 15.1399C21.1325 14.9649 21.025 14.5674 21.2 14.2599C21.33 14.0299 21.5925 13.9099 21.84 13.9399Z" fill="#262626"/>
</svg>
