<svg width="40" height="40" viewBox="0 0 40 40" fill="none" xmlns="http://www.w3.org/2000/svg">
<path d="M31.707 9.05727C31.707 9.05727 25.6943 7.65896 16.7452 15.7691C13.9486 18.1462 11.4316 22.6208 11.4316 22.6208L13.6689 25.1377L31.707 9.05727Z" fill="#BBE4FC"/>
<path d="M31.7049 9.05713C31.7049 9.05713 32.4041 15.2097 23.4549 23.18C20.6583 25.5571 16.0439 27.6545 16.0439 27.6545L13.8066 25.1376L31.7049 9.05713Z" fill="#BBE4FC"/>
<path d="M25.4138 21.2227C24.9943 25.4176 23.3164 29.4726 23.3164 29.4726C23.3164 29.4726 18.8418 33.1082 15.0664 34.087L18.1427 25.4176L25.4138 21.2227Z" fill="#BBE4FC"/>
<path d="M18.8432 13.9512C14.6483 13.9512 10.4534 15.0698 10.4534 15.0698C10.4534 15.0698 6.3983 19.1249 5 22.7605L13.9491 20.663L18.8432 13.9512Z" fill="#BBE4FC"/>
<path d="M33.9459 7.09949C33.9459 7.09949 26.9544 5.00204 17.3061 13.6715C14.3697 16.3283 11.7129 21.2223 11.7129 21.2223L14.5095 24.4384L17.3061 27.6545C17.3061 27.6545 22.6196 25.5571 25.5561 23.0401C35.2044 14.2308 33.9459 7.09949 33.9459 7.09949Z" fill="#0D80D8"/>
<path d="M26.2548 16.8875C27.8765 16.8875 29.1912 15.5728 29.1912 13.9511C29.1912 12.3293 27.8765 11.0146 26.2548 11.0146C24.633 11.0146 23.3184 12.3293 23.3184 13.9511C23.3184 15.5728 24.633 16.8875 26.2548 16.8875Z" fill="#142839"/>
<path d="M23.4584 16.3282C22.1999 14.7901 22.1999 12.5528 23.7381 11.2943C25.2762 10.0359 27.5135 10.0359 28.7719 11.574C30.1702 12.9723 30.0304 15.3494 28.6321 16.6079C27.094 18.0062 24.8567 17.8664 23.4584 16.3282ZM27.933 12.413C27.094 11.4342 25.6957 11.4342 24.7169 12.2731C23.7381 13.1121 23.7381 14.5104 24.577 15.4892C25.416 16.4681 26.8143 16.4681 27.7931 15.6291C28.6321 14.7901 28.7719 13.3918 27.933 12.413Z" fill="#BBE4FC"/>
<path d="M20.6607 18.8458C19.542 18.7059 18.4234 18.9856 17.5844 19.9644L9.75391 28.6339L19.2624 21.7822C20.2412 21.0831 20.8005 19.9644 20.6607 18.8458Z" fill="#BBE4FC"/>
</svg>
