<svg width="48" height="49" viewBox="0 0 48 49" fill="none" xmlns="http://www.w3.org/2000/svg">
    <circle cx="24" cy="24.5" r="17.5" fill="#066DA5"/>
    <path d="M26.9495 23.9037H29.2266V21.8435H26.9495V23.9037ZM24.2387 23.9037H26.5158V21.8435H24.2387V23.9037ZM21.5821 23.9037H23.8592V21.8435H21.5821V23.9037ZM18.9255 23.9037H21.1484V21.8435H18.9255V23.9037ZM16.2147 23.9037H18.4918V21.8435H16.2147V23.9037ZM18.9255 21.4097H21.1484V19.3495H18.9255V21.4097ZM21.5821 21.4097H23.8592V19.3495H21.5821V21.4097ZM24.2387 21.4097H26.5158V19.3495H24.2387V21.4097ZM24.2387 18.9158H26.5158V16.8556H24.2387V18.9158ZM36.4915 22.982C36.4915 22.982 35.5156 22.0603 33.5096 22.3856C33.2928 20.8134 31.6121 19.8917 31.6121 19.8917C31.6121 19.8917 30.0398 21.7893 31.1784 23.9037C30.8531 24.0663 30.3109 24.2832 29.4977 24.2832H14.5882C14.3172 25.3133 14.3172 32.1445 21.799 32.1445C27.1664 32.1445 31.1784 29.6506 33.0759 25.0964C35.8951 25.3133 36.4915 22.982 36.4915 22.982Z" fill="white"/>
</svg>
