<svg width="48" height="49" viewBox="0 0 48 49" fill="none" xmlns="http://www.w3.org/2000/svg">
    <path fill-rule="evenodd" clip-rule="evenodd" d="M40.2423 31.027C41.0535 29.0101 41.5 26.8072 41.5 24.5C41.5 14.835 33.665 7 24 7C14.335 7 6.5 14.835 6.5 24.5C6.5 34.165 14.335 42 24 42C26.3072 42 28.5101 41.5535 30.527 40.7423C29.3525 39.5093 28.6315 37.8405 28.6315 36.0032C28.6315 32.2081 31.7081 29.1315 35.5032 29.1315C37.3405 29.1315 39.0093 29.8525 40.2423 31.027Z" fill="#066DA5"/>
    <path d="M34.5601 41.0437C34.43 41.0437 34.3212 40.9463 34.3061 40.8173L34.188 39.7973C33.7 39.628 33.2597 39.371 32.8766 39.0393L31.9315 39.4488C31.8126 39.5003 31.6751 39.4535 31.6106 39.3405L30.6655 37.7063C30.601 37.5934 30.6306 37.4502 30.7344 37.3735L31.5476 36.771C31.5002 36.521 31.4708 36.2653 31.4708 36.0031C31.4708 35.741 31.4992 35.4862 31.5476 35.2372L30.7364 34.6327C30.6325 34.5551 30.6019 34.4119 30.6675 34.3L31.6106 32.6658C31.6751 32.5528 31.8145 32.508 31.9335 32.5594L32.8766 32.967C33.2587 32.6363 33.7 32.3783 34.188 32.209L34.3061 31.189C34.3202 31.059 34.43 30.9626 34.5601 30.9626H36.4464C36.5764 30.9626 36.6852 31.06 36.7004 31.189L36.8185 32.209C37.3064 32.3783 37.7467 32.6353 38.1298 32.967L39.0749 32.5575C39.1939 32.506 39.3314 32.5539 39.3959 32.6658L40.341 34.3C40.4055 34.4129 40.3759 34.5561 40.2721 34.6327L39.4589 35.2372C39.5073 35.4862 39.5357 35.741 39.5357 36.0031C39.5357 36.2653 39.5073 36.5201 39.4589 36.7691L40.2701 37.3735C40.3739 37.4512 40.4045 37.5944 40.339 37.7063L39.3959 39.3405C39.3314 39.4535 39.1919 39.4983 39.073 39.4469L38.1298 39.0393C37.7478 39.37 37.3064 39.628 36.8185 39.7973L36.7004 40.8173C36.6862 40.9473 36.5764 41.0437 36.4464 41.0437H34.5601ZM35.5032 37.7673C36.4771 37.7673 37.2674 36.978 37.2674 36.0031C37.2674 35.0293 36.4771 34.239 35.5032 34.239C34.5294 34.239 33.739 35.0293 33.739 36.0031C33.739 36.978 34.5294 37.7673 35.5032 37.7673Z" fill="#066DA5"/>
    <path d="M26.1686 23.9037H28.4457V21.8435H26.1686V23.9037ZM23.4578 23.9037H25.7349V21.8435H23.4578V23.9037ZM20.8013 23.9037H23.0783V21.8435H20.8013V23.9037ZM18.1447 23.9037H20.3675V21.8435H18.1447V23.9037ZM15.4339 23.9037H17.7109V21.8435H15.4339V23.9037ZM18.1447 21.4097H20.3675V19.3495H18.1447V21.4097ZM20.8013 21.4097H23.0783V19.3495H20.8013V21.4097ZM23.4578 21.4097H25.7349V19.3495H23.4578V21.4097ZM23.4578 18.9158H25.7349V16.8556H23.4578V18.9158ZM35.7107 22.982C35.7107 22.982 34.7348 22.0603 32.7288 22.3856C32.5119 20.8134 30.8312 19.8917 30.8312 19.8917C30.8312 19.8917 29.259 21.7893 30.3975 23.9037C30.0722 24.0663 29.53 24.2832 28.7168 24.2832H13.8074C13.5363 25.3133 13.5363 32.1445 21.0181 32.1445C26.3855 32.1445 30.3975 29.6506 32.2951 25.0964C35.1143 25.3133 35.7107 22.982 35.7107 22.982Z" fill="white"/>
</svg>
